<svg xmlns="http://www.w3.org/2000/svg" viewBox="-6 -6 112 112"><path d="M 81.1 28.2 A 38 38 0 1 0 81.1 71.8" fill="none" stroke="#FFFFFF" stroke-width="13" stroke-linecap="round"></path><g fill="#FFFFFF"><g transform="translate(43,42) rotate(-14) scale(0.46) translate(-50,-57)"><ellipse cx="43.5" cy="40" rx="5.2" ry="6"></ellipse><ellipse cx="56.5" cy="40" rx="5.2" ry="6"></ellipse><ellipse cx="33" cy="48.5" rx="4.8" ry="5.6" transform="rotate(-18 33 48.5)"></ellipse><ellipse cx="67" cy="48.5" rx="4.8" ry="5.6" transform="rotate(18 67 48.5)"></ellipse><path d="M50 50 C 60 50 68 57 68 64 C 68 72 60 74 50 74 C 40 74 32 72 32 64 C 32 57 40 50 50 50 Z"></path></g><g transform="translate(60,60) rotate(-14) scale(0.34) translate(-50,-57)"><ellipse cx="43.5" cy="40" rx="5.2" ry="6"></ellipse><ellipse cx="56.5" cy="40" rx="5.2" ry="6"></ellipse><ellipse cx="33" cy="48.5" rx="4.8" ry="5.6" transform="rotate(-18 33 48.5)"></ellipse><ellipse cx="67" cy="48.5" rx="4.8" ry="5.6" transform="rotate(18 67 48.5)"></ellipse><path d="M50 50 C 60 50 68 57 68 64 C 68 72 60 74 50 74 C 40 74 32 72 32 64 C 32 57 40 50 50 50 Z"></path></g></g></svg>